<svg xmlns="http://www.w3.org/2000/svg" viewBox="0 0 800 600" fill="none">
  <defs>
    <linearGradient id="sky" x1="0" y1="0" x2="0" y2="1">
      <stop offset="0%" stop-color="#BAE6FD"/>
      <stop offset="100%" stop-color="#FEF3C7"/>
    </linearGradient>
    <linearGradient id="ground" x1="0" y1="0" x2="1" y2="0">
      <stop offset="0%" stop-color="#86EFAC"/>
      <stop offset="100%" stop-color="#6EE7B7"/>
    </linearGradient>
  </defs>
  <rect width="800" height="600" fill="url(#sky)" rx="32"/>
  <ellipse cx="680" cy="90" rx="55" ry="55" fill="#FDE047" opacity="0.95"/>
  <g fill="#fff" opacity="0.85">
    <ellipse cx="120" cy="110" rx="70" ry="35"/>
    <ellipse cx="180" cy="95" rx="55" ry="30"/>
    <ellipse cx="620" cy="140" rx="80" ry="38"/>
    <ellipse cx="690" cy="125" rx="50" ry="28"/>
  </g>
  <rect x="0" y="420" width="800" height="180" fill="url(#ground)"/>
  <rect x="250" y="200" width="300" height="220" rx="12" fill="#FEF08A" stroke="#CA8A04" stroke-width="4"/>
  <polygon points="400,120 220,210 580,210" fill="#EF4444"/>
  <rect x="355" y="320" width="90" height="100" rx="8" fill="#92400E"/>
  <g fill="#7DD3FC" stroke="#0284C7" stroke-width="3">
    <rect x="280" y="250" width="55" height="55" rx="6"/>
    <rect x="360" y="250" width="55" height="55" rx="6"/>
    <rect x="440" y="250" width="55" height="55" rx="6"/>
    <rect x="280" y="330" width="55" height="55" rx="6"/>
    <rect x="440" y="330" width="55" height="55" rx="6"/>
  </g>
  <rect x="310" y="215" width="180" height="35" rx="8" fill="#DC2626"/>
  <text x="400" y="240" text-anchor="middle" fill="white" font-family="Arial,sans-serif" font-size="18" font-weight="bold">SCHOOL</text>
  <!-- Kids -->
  <circle cx="150" cy="390" r="28" fill="#FBBF24"/>
  <rect x="130" y="418" width="40" height="55" rx="10" fill="#3B82F6"/>
  <circle cx="650" cy="385" r="26" fill="#F472B6"/>
  <rect x="632" y="411" width="36" height="52" rx="10" fill="#A855F7"/>
  <circle cx="520" cy="395" r="24" fill="#34D399"/>
  <rect x="504" y="419" width="32" height="48" rx="8" fill="#F97316"/>
  <!-- Books & bus -->
  <rect x="80" y="360" width="40" height="30" rx="4" fill="#EF4444" transform="rotate(-12 80 360)"/>
  <rect x="95" y="355" width="40" height="30" rx="4" fill="#3B82F6" transform="rotate(8 95 355)"/>
  <rect x="700" y="370" width="70" height="35" rx="8" fill="#FACC15" stroke="#CA8A04" stroke-width="2"/>
  <circle cx="715" cy="410" r="12" fill="#374151"/>
  <circle cx="755" cy="410" r="12" fill="#374151"/>
  <rect x="705" y="355" width="25" height="18" rx="4" fill="#87CEEB"/>
</svg>
